<svg width="32" height="32" viewBox="0 0 32 32" xmlns="http://www.w3.org/2000/svg">
  <rect width="32" height="32" rx="6" fill="#EAB308"/>
  <rect x="8" y="8" width="5" height="16" rx="1" fill="white"/>
  <rect x="15" y="6" width="5" height="18" rx="1" fill="white"/>
  <rect x="22" y="10" width="4" height="14" rx="1" fill="white"/>
  <rect x="9" y="10" width="1" height="1" fill="#EAB308"/>
  <rect x="11" y="10" width="1" height="1" fill="#EAB308"/>
  <rect x="9" y="12" width="1" height="1" fill="#EAB308"/>
  <rect x="11" y="12" width="1" height="1" fill="#EAB308"/>
  <rect x="9" y="14" width="1" height="1" fill="#EAB308"/>
  <rect x="11" y="14" width="1" height="1" fill="#EAB308"/>
  <rect x="16" y="8" width="1" height="1" fill="#EAB308"/>
  <rect x="18" y="8" width="1" height="1" fill="#EAB308"/>
  <rect x="16" y="10" width="1" height="1" fill="#EAB308"/>
  <rect x="18" y="10" width="1" height="1" fill="#EAB308"/>
  <rect x="16" y="12" width="1" height="1" fill="#EAB308"/>
  <rect x="18" y="12" width="1" height="1" fill="#EAB308"/>
  <rect x="23" y="12" width="1" height="1" fill="#EAB308"/>
  <rect x="24" y="12" width="1" height="1" fill="#EAB308"/>
  <rect x="23" y="14" width="1" height="1" fill="#EAB308"/>
  <rect x="24" y="14" width="1" height="1" fill="#EAB308"/>
</svg>