<svg width="80" height="80" viewBox="0 0 80 80" fill="none" xmlns="http://www.w3.org/2000/svg">
<path d="M21.8486 73.7774V39.5266" stroke="#EFF0F0" stroke-width="1.5" stroke-miterlimit="10" stroke-linecap="round" stroke-linejoin="round"/>
<path d="M43.9453 73.7766V58.5188" stroke="#EFF0F0" stroke-width="1.5" stroke-miterlimit="10" stroke-linecap="round" stroke-linejoin="round"/>
<path d="M43.9453 53.05V39.5266" stroke="#EFF0F0" stroke-width="1.5" stroke-miterlimit="10" stroke-linecap="round" stroke-linejoin="round"/>
<path d="M10.8 13.9844V34.7906C10.8 37.4063 12.9204 39.5266 15.5344 39.5266H50.2594C52.8751 39.5266 54.9954 37.4063 54.9954 34.7906V5.90625C54.9954 3.29219 52.8751 1.17188 50.2594 1.17188H15.5344C12.9204 1.17188 10.8 3.29219 10.8 5.90625V8.51562" stroke="#EFF0F0" stroke-width="1.5" stroke-miterlimit="10" stroke-linecap="round" stroke-linejoin="round"/>
<path d="M15.8508 32.8973V7.80109C15.8508 6.92937 16.5575 6.22266 17.4293 6.22266H48.3655C49.2372 6.22266 49.9439 6.92937 49.9439 7.80109V32.8973C49.9439 33.7691 49.2372 34.4758 48.3655 34.4758H17.4291C16.5574 34.4756 15.8508 33.7691 15.8508 32.8973Z" stroke="#EFF0F0" stroke-width="1.5" stroke-miterlimit="10" stroke-linecap="round" stroke-linejoin="round"/>
<path d="M38.8836 18.3762H33.8555V10.9578L26.9106 22.6904H31.9388V29.7404L38.8836 18.3762Z" stroke="#EFF0F0" stroke-width="1.5" stroke-miterlimit="10" stroke-linecap="round" stroke-linejoin="round"/>
<path d="M29.6453 78.8282H54.3625C55.0609 78.8282 55.6265 78.2625 55.6265 77.5657V75.0407C55.6265 74.3422 55.0609 73.7766 54.3625 73.7766H11.4312C10.7343 73.7766 10.1687 74.3422 10.1687 75.0407V77.5657C10.1687 78.2625 10.7343 78.8282 11.4312 78.8282H24.1765" stroke="#EFF0F0" stroke-width="1.5" stroke-miterlimit="10" stroke-linecap="round" stroke-linejoin="round"/>
<path d="M68.2529 22.3223H60.9924C60.295 22.3223 59.7297 22.8876 59.7297 23.5849V37.4746C59.7297 38.172 60.295 38.7373 60.9924 38.7373H63.5179C64.2152 38.7373 64.7805 38.172 64.7805 37.4746V30.8454H68.253C69.1247 30.8454 69.8315 30.1387 69.8315 29.267V23.9004C69.8311 23.0288 69.1246 22.3223 68.2529 22.3223Z" stroke="#EFF0F0" stroke-width="1.5" stroke-miterlimit="10" stroke-linecap="round" stroke-linejoin="round"/>
<path d="M64.7805 22.3223V30.8455" stroke="#EFF0F0" stroke-width="1.5" stroke-miterlimit="10" stroke-linecap="round" stroke-linejoin="round"/>
<path d="M62.2551 38.7373V62.8865C62.2551 66.2862 59.4992 69.0421 56.0995 69.0421C52.6998 69.0421 49.9438 66.2862 49.9438 62.8865V39.5265" stroke="#EFF0F0" stroke-width="1.5" stroke-miterlimit="10" stroke-linecap="round" stroke-linejoin="round"/>
</svg>
