<svg width="80" height="80" viewBox="0 0 80 80" fill="none" xmlns="http://www.w3.org/2000/svg">
<path d="M27.0168 61.4543V71.657" stroke="#EFF0F0" stroke-width="1.5" stroke-miterlimit="10" stroke-linecap="round" stroke-linejoin="round"/>
<mask id="mask0_167_2579" style="mask-type:luminance" maskUnits="userSpaceOnUse" x="0" y="0" width="80" height="80">
<path d="M0 7.62939e-06H80V80H0V7.62939e-06Z" fill="white"/>
</mask>
<g mask="url(#mask0_167_2579)">
<path d="M35.7721 74.9897C34.9191 72.9699 32.9396 71.6569 30.7471 71.6569H23.3364C21.1438 71.6569 19.1642 72.9699 18.3113 74.9897" stroke="#EFF0F0" stroke-width="1.5" stroke-miterlimit="10" stroke-linecap="round" stroke-linejoin="round"/>
<path d="M61.4038 66.3521H65.3132" stroke="#EFF0F0" stroke-width="1.5" stroke-miterlimit="10" stroke-linecap="round" stroke-linejoin="round"/>
<path d="M61.4038 49.2288H65.3132" stroke="#EFF0F0" stroke-width="1.5" stroke-miterlimit="10" stroke-linecap="round" stroke-linejoin="round"/>
<path d="M74.7002 63.6121V40.5908" stroke="#EFF0F0" stroke-width="1.5" stroke-miterlimit="10" stroke-linecap="round" stroke-linejoin="round"/>
<path d="M52.0166 40.5908V73.6187C52.0166 74.376 52.6305 74.9897 53.3875 74.9897H73.3291C74.0863 74.9897 74.7002 74.376 74.7002 73.6187V69.0869" stroke="#EFF0F0" stroke-width="1.5" stroke-miterlimit="10" stroke-linecap="round" stroke-linejoin="round"/>
<path d="M5.12817 40.5908V73.8165C5.12817 74.4644 5.65349 74.9897 6.30146 74.9897H8.77411C9.42192 74.9897 9.94739 74.4644 9.94739 73.8165V40.5908" stroke="#EFF0F0" stroke-width="1.5" stroke-miterlimit="10" stroke-linecap="round" stroke-linejoin="round"/>
<path d="M13.8439 35.128H2.44547C1.74203 35.128 1.17188 35.6982 1.17188 36.4014V39.3174C1.17188 40.0207 1.74203 40.5908 2.44547 40.5908H15.0008" stroke="#EFF0F0" stroke-width="1.5" stroke-miterlimit="10" stroke-linecap="round" stroke-linejoin="round"/>
<path d="M38.929 40.5908H52.0166H74.7002H77.4943C78.1975 40.5908 78.7679 40.0207 78.7679 39.3174V36.4014C78.7679 35.6982 78.1975 35.128 77.4943 35.128H40.0858" stroke="#EFF0F0" stroke-width="1.5" stroke-miterlimit="10" stroke-linecap="round" stroke-linejoin="round"/>
<path d="M40.0858 35.1281C40.4483 30.8568 37.079 27.0481 32.6464 27.0481H21.2834C16.8508 27.0481 13.4812 30.8568 13.8439 35.1281C13.8728 35.469 13.9226 35.8124 14.0004 36.1574L15.0008 40.5909L16.7526 48.3546C17.2278 50.4601 19.0983 51.9556 21.2567 51.9556H32.6729C34.8314 51.9556 36.7019 50.4601 37.177 48.3546L38.9289 40.5909L39.9292 36.1574C40.0072 35.8124 40.0569 35.469 40.0858 35.1281Z" stroke="#EFF0F0" stroke-width="1.5" stroke-miterlimit="10" stroke-linecap="round" stroke-linejoin="round"/>
<path d="M36.7365 61.4543H17.1932C16.2712 61.4543 15.5237 60.7068 15.5237 59.7848C15.5237 57.7722 17.1554 56.1403 19.1681 56.1403H34.7616C36.7745 56.1403 38.4062 57.772 38.4062 59.7847C38.4062 60.7067 37.6585 61.4543 36.7365 61.4543Z" stroke="#EFF0F0" stroke-width="1.5" stroke-miterlimit="10" stroke-linecap="round" stroke-linejoin="round"/>
<path d="M23.7268 51.9555L24.2313 56.1404" stroke="#EFF0F0" stroke-width="1.5" stroke-miterlimit="10" stroke-linecap="round" stroke-linejoin="round"/>
<path d="M29.6985 56.1404L30.203 51.9555" stroke="#EFF0F0" stroke-width="1.5" stroke-miterlimit="10" stroke-linecap="round" stroke-linejoin="round"/>
<path d="M74.7002 57.7141H52.0166" stroke="#EFF0F0" stroke-width="1.5" stroke-miterlimit="10" stroke-linecap="round" stroke-linejoin="round"/>
<path d="M43.9387 12.3944V6.74035C43.9387 5.78488 44.7134 5.0102 45.669 5.0102H77.0978C78.0534 5.0102 78.8281 5.78488 78.8281 6.74035V27.2902C78.8281 28.2458 78.0534 29.0205 77.0978 29.0205H45.669C44.7134 29.0205 43.9387 28.2458 43.9387 27.2902V17.8772" stroke="#EFF0F0" stroke-width="1.5" stroke-miterlimit="10" stroke-linecap="round" stroke-linejoin="round"/>
<path d="M78.8281 24.1426H43.9387" stroke="#EFF0F0" stroke-width="1.5" stroke-miterlimit="10" stroke-linecap="round" stroke-linejoin="round"/>
<path d="M66.3117 35.1279L64.9968 29.0204" stroke="#EFF0F0" stroke-width="1.5" stroke-miterlimit="10" stroke-linecap="round" stroke-linejoin="round"/>
<path d="M57.7704 29.0204L56.4556 35.1279" stroke="#EFF0F0" stroke-width="1.5" stroke-miterlimit="10" stroke-linecap="round" stroke-linejoin="round"/>
</g>
</svg>
