<svg width="50" height="50" viewBox="0 0 50 50" fill="none" xmlns="http://www.w3.org/2000/svg">
<g clip-path="url(#clip0_182_3584)">
<mask id="mask0_182_3584" style="mask-type:luminance" maskUnits="userSpaceOnUse" x="0" y="0" width="50" height="50">
<path d="M0 7.62939e-06H50V50H0V7.62939e-06Z" fill="white"/>
</mask>
<g mask="url(#mask0_182_3584)">
<path d="M13.8471 10.9955C13.2547 10.5045 12.7383 9.95381 12.334 9.31025C10.1943 5.90381 13.2244 2.94658 17.0654 0.719338H24.3276C23.3816 1.66123 20.1087 3.37012 20.5773 5.42471C20.7976 6.39034 21.7628 6.99443 22.4015 7.38809C22.9047 7.69824 23.4336 7.95479 23.9727 8.18115C28.9969 10.289 34.3939 11.1981 39.154 14.1063C42.4053 16.0927 44.8298 19.1444 45.5877 23.1892C46.1124 25.9894 45.8266 28.8804 45.2627 31.6859L45.2521 31.7383" stroke="#135A38" stroke-miterlimit="10" stroke-linecap="round" stroke-linejoin="round"/>
<path d="M44.4749 35.0468C44.2731 35.8252 44.0661 36.5907 43.8666 37.339C42.7723 41.4456 41.451 45.3201 40.1673 49.2808H5.98291C6.46777 48.521 15.2987 37.8014 19.0591 33.5399C21.0334 31.3025 25.812 25.4479 25.011 20.9062C24.1852 16.2241 20.229 14.6642 16.7919 12.8552L16.7324 12.8238" stroke="#135A38" stroke-miterlimit="10" stroke-linecap="round" stroke-linejoin="round"/>
<path d="M24.3272 0.719728H28.1001C28.1001 0.719728 24.5316 3.43428 23.9402 4.1084C23.2145 4.93565 24.3374 5.44854 25.0303 5.70977C26.3933 6.22373 27.778 6.61797 29.1543 7.08721C30.6473 7.59629 32.1337 8.12451 33.6115 8.67568C34.5333 9.01953 35.4533 9.36846 36.3637 9.7418C38.1559 10.477 39.9173 11.3077 41.5447 12.3644C42.7071 13.1189 43.8068 13.9941 44.7858 15.0139C46.9514 17.2694 48.2717 20.2249 48.8671 23.4029C49.7552 28.1442 48.9489 33.0684 47.7749 37.4746C46.6807 41.5811 45.6246 45.3203 44.3404 49.2812L40.1669 49.281" stroke="#135A38" stroke-miterlimit="10" stroke-linecap="round" stroke-linejoin="round"/>
<path d="M17.0658 0.719239H13.0565C10.0325 2.47275 7.82759 6.23965 9.49634 9.9958C10.8638 13.0734 14.187 14.4434 16.7193 16.0957C18.1236 17.0119 19.6523 17.8184 20.8174 19.0997C21.8888 20.278 22.1792 21.7816 21.7475 23.3518C20.664 27.2925 17.1637 30.6528 14.6162 33.5398C10.8558 37.8014 1.23999 48.521 0.755127 49.2808H6.57007" stroke="#135A38" stroke-miterlimit="10" stroke-linecap="round" stroke-linejoin="round"/>
<path d="M17.885 3.7752C16.6277 4.74639 16.1751 7.23106 17.2104 8.49473C18.1788 9.67696 19.8076 10.2029 21.1345 10.8555C23.0256 11.7856 24.8669 12.7731 26.7536 13.7288C28.0976 14.4096 29.3361 15.2511 30.6931 15.9477C33.7032 17.4925 35.9574 20.7962 35.9051 24.2321C35.8425 28.3396 33.3695 31.7874 31.4466 35.2787C29.4781 38.8523 25.223 46.0099 23.1352 49.2808" stroke="#135A38" stroke-miterlimit="10" stroke-linecap="round" stroke-linejoin="round" stroke-dasharray="26.67 53.33"/>
</g>
</g>
<defs>
<clipPath id="clip0_182_3584">
<rect width="50" height="50" fill="white"/>
</clipPath>
</defs>
</svg>
