<svg width="80" height="80" viewBox="0 0 80 80" fill="none" xmlns="http://www.w3.org/2000/svg">
<path d="M76.3231 75.0705V7.43444C76.3231 6.05101 75.2015 4.92944 73.8181 4.92944H6.182C4.79856 4.92944 3.677 6.05101 3.677 7.43444V75.0705" stroke="#EFF0F0" stroke-width="1.5" stroke-miterlimit="10" stroke-linecap="round" stroke-linejoin="round"/>
<path d="M1.17188 75.0706H78.8281" stroke="#EFF0F0" stroke-width="1.5" stroke-miterlimit="10" stroke-linecap="round" stroke-linejoin="round"/>
<path d="M61.2927 66.303V23.7172C61.2927 20.9502 59.0496 18.707 56.2826 18.707H13.6969C10.9299 18.707 8.68677 20.9502 8.68677 23.7172V75.0705" stroke="#EFF0F0" stroke-width="1.5" stroke-miterlimit="10" stroke-linecap="round" stroke-linejoin="round"/>
<path d="M61.2927 75.0706V71.313" stroke="#EFF0F0" stroke-width="1.5" stroke-miterlimit="10" stroke-linecap="round" stroke-linejoin="round"/>
<path d="M13.697 33.7373V75.0706" stroke="#EFF0F0" stroke-width="1.5" stroke-miterlimit="10" stroke-linecap="round" stroke-linejoin="round"/>
<path d="M56.2828 75.0705V23.717H13.697V28.7272" stroke="#EFF0F0" stroke-width="1.5" stroke-miterlimit="10" stroke-linecap="round" stroke-linejoin="round"/>
<path d="M66.303 46.2625L68.808 43.7573L71.313 46.2625" stroke="#EFF0F0" stroke-width="1.5" stroke-miterlimit="10" stroke-linecap="round" stroke-linejoin="round"/>
<path d="M27.4749 12.4445L29.9799 9.93945L32.4849 12.4445" stroke="#EFF0F0" stroke-width="1.5" stroke-miterlimit="10" stroke-linecap="round" stroke-linejoin="round"/>
<path d="M71.313 51.2725L68.808 53.7775L66.303 51.2725" stroke="#EFF0F0" stroke-width="1.5" stroke-miterlimit="10" stroke-linecap="round" stroke-linejoin="round"/>
<path d="M42.5051 9.93945L40.0001 12.4445L37.4951 9.93945" stroke="#EFF0F0" stroke-width="1.5" stroke-miterlimit="10" stroke-linecap="round" stroke-linejoin="round"/>
<path d="M34.9897 75.0705V23.717" stroke="#EFF0F0" stroke-width="1.5" stroke-miterlimit="10" stroke-linecap="round" stroke-linejoin="round"/>
</svg>
