<svg width="80" height="80" viewBox="0 0 80 80" fill="none" xmlns="http://www.w3.org/2000/svg">
<g clip-path="url(#clip0_153_763)">
<path d="M6.45535 64.0507C4.83801 66.0341 3.86816 68.5664 3.86816 71.3254V72.5297H20.8207V59.8057H15.8039" stroke="#EFF0F0" stroke-width="1.5" stroke-miterlimit="10" stroke-linecap="round" stroke-linejoin="round"/>
<path d="M73.5013 63.9978C75.1446 65.9891 76.1318 68.5419 76.1318 71.3253V72.5297H59.1794V59.8057H64.1962" stroke="#EFF0F0" stroke-width="1.5" stroke-miterlimit="10" stroke-linecap="round" stroke-linejoin="round"/>
<path d="M8.77312 78.756H2.73438C1.87141 78.756 1.17188 78.0565 1.17188 77.1935V74.0923C1.17188 73.2293 1.87141 72.5298 2.73438 72.5298H77.2656C78.1286 72.5298 78.8281 73.2293 78.8281 74.0923V77.1935C78.8281 78.0565 78.1286 78.756 77.2656 78.756H14.2423" stroke="#EFF0F0" stroke-width="1.5" stroke-miterlimit="10" stroke-linecap="round" stroke-linejoin="round"/>
<path d="M59.1793 72.5298H20.8206V48.6094C20.8206 48.178 21.1704 47.8281 21.6018 47.8281H58.3981C58.8295 47.8281 59.1793 48.178 59.1793 48.6094V72.5298Z" stroke="#EFF0F0" stroke-width="1.5" stroke-miterlimit="10" stroke-linecap="round" stroke-linejoin="round"/>
<path d="M55.6557 23.6206H24.3445C23.9131 23.6206 23.5632 23.9704 23.5632 24.4019V47.8281H56.437V24.4019C56.437 23.9703 56.0871 23.6206 55.6557 23.6206Z" stroke="#EFF0F0" stroke-width="1.5" stroke-miterlimit="10" stroke-linecap="round" stroke-linejoin="round"/>
<path d="M53.5325 16.9948V23.6206H26.4678V2.02515C26.4678 1.59374 26.8176 1.2439 27.249 1.2439H52.7512C53.1826 1.2439 53.5325 1.59374 53.5325 2.02515V11.5256" stroke="#EFF0F0" stroke-width="1.5" stroke-miterlimit="10" stroke-linecap="round" stroke-linejoin="round"/>
<path d="M33.4663 7.21191V17.6522" stroke="#EFF0F0" stroke-width="1.5" stroke-miterlimit="10" stroke-linecap="round" stroke-linejoin="round"/>
<path d="M39.9998 7.21191V17.6522" stroke="#EFF0F0" stroke-width="1.5" stroke-miterlimit="10" stroke-linecap="round" stroke-linejoin="round"/>
<path d="M46.5334 7.21191V17.6522" stroke="#EFF0F0" stroke-width="1.5" stroke-miterlimit="10" stroke-linecap="round" stroke-linejoin="round"/>
<path d="M30.1997 29.7V41.7485" stroke="#EFF0F0" stroke-width="1.5" stroke-miterlimit="10" stroke-linecap="round" stroke-linejoin="round"/>
<path d="M36.7334 29.7V41.7485" stroke="#EFF0F0" stroke-width="1.5" stroke-miterlimit="10" stroke-linecap="round" stroke-linejoin="round"/>
<path d="M43.2666 29.7V41.7485" stroke="#EFF0F0" stroke-width="1.5" stroke-miterlimit="10" stroke-linecap="round" stroke-linejoin="round"/>
<path d="M49.8003 29.7V41.7485" stroke="#EFF0F0" stroke-width="1.5" stroke-miterlimit="10" stroke-linecap="round" stroke-linejoin="round"/>
<path d="M33.4663 53.748V66.7123" stroke="#EFF0F0" stroke-width="1.5" stroke-miterlimit="10" stroke-linecap="round" stroke-linejoin="round"/>
<path d="M39.9998 53.748V66.7123" stroke="#EFF0F0" stroke-width="1.5" stroke-miterlimit="10" stroke-linecap="round" stroke-linejoin="round"/>
<path d="M26.9326 53.748V66.7123" stroke="#EFF0F0" stroke-width="1.5" stroke-miterlimit="10" stroke-linecap="round" stroke-linejoin="round"/>
<path d="M46.5332 53.748V66.7123" stroke="#EFF0F0" stroke-width="1.5" stroke-miterlimit="10" stroke-linecap="round" stroke-linejoin="round"/>
<path d="M53.0669 53.748V66.7123" stroke="#EFF0F0" stroke-width="1.5" stroke-miterlimit="10" stroke-linecap="round" stroke-linejoin="round"/>
<path d="M9.50803 40.2905C12.9852 40.2905 15.804 43.1093 15.804 46.5863V58.2636C15.804 61.7407 12.9852 64.5594 9.50818 64.5594C6.03115 64.5594 3.2124 61.7407 3.2124 58.2636V46.5863C3.21225 43.1093 6.031 40.2905 9.50803 40.2905Z" stroke="#EFF0F0" stroke-width="1.5" stroke-miterlimit="10" stroke-linecap="round" stroke-linejoin="round"/>
<path d="M9.50806 52.2686V71.9107" stroke="#EFF0F0" stroke-width="1.5" stroke-miterlimit="10" stroke-linecap="round" stroke-linejoin="round"/>
<path d="M70.492 40.2905C67.0148 40.2905 64.196 43.1093 64.196 46.5863V58.2636C64.196 61.7407 67.0148 64.5594 70.4918 64.5594C73.9689 64.5594 76.7876 61.7407 76.7876 58.2636V46.5863C76.7879 43.1093 73.9692 40.2905 70.492 40.2905Z" stroke="#EFF0F0" stroke-width="1.5" stroke-miterlimit="10" stroke-linecap="round" stroke-linejoin="round"/>
<path d="M70.4919 52.2686V71.9107" stroke="#EFF0F0" stroke-width="1.5" stroke-miterlimit="10" stroke-linecap="round" stroke-linejoin="round"/>
</g>
<defs>
<clipPath id="clip0_153_763">
<rect width="80" height="80" fill="white"/>
</clipPath>
</defs>
</svg>
