<svg width="80" height="80" viewBox="0 0 80 80" fill="none" xmlns="http://www.w3.org/2000/svg">
<g clip-path="url(#clip0_167_2257)">
<mask id="mask0_167_2257" style="mask-type:luminance" maskUnits="userSpaceOnUse" x="0" y="0" width="80" height="80">
<path d="M0 7.62939e-06H80V80H0V7.62939e-06Z" fill="white"/>
</mask>
<g mask="url(#mask0_167_2257)">
<path d="M60.9766 19.5733H77.2656C78.1286 19.5733 78.8281 20.2728 78.8281 21.1358V78.8281H60.9766" stroke="#EFF0F0" stroke-width="1.5" stroke-miterlimit="10" stroke-linecap="round" stroke-linejoin="round"/>
<path d="M19.0234 78.8281H1.17188V33.7119C1.17188 32.8489 1.87141 32.1494 2.73437 32.1494H19.0234" stroke="#EFF0F0" stroke-width="1.5" stroke-miterlimit="10" stroke-linecap="round" stroke-linejoin="round"/>
<path d="M19.0234 9.16831V2.73441C19.0234 1.87144 19.723 1.17191 20.5859 1.17191H59.4141C60.277 1.17191 60.9766 1.87144 60.9766 2.73441V62.7214" stroke="#EFF0F0" stroke-width="1.5" stroke-miterlimit="10" stroke-linecap="round" stroke-linejoin="round"/>
<path d="M60.9766 67.0964V78.8281H19.0234V13.5433" stroke="#EFF0F0" stroke-width="1.5" stroke-miterlimit="10" stroke-linecap="round" stroke-linejoin="round"/>
<path d="M27.3176 7.42183H36.0937C36.9567 7.42183 37.6562 8.12136 37.6562 8.98433V13.7273C37.6562 14.5903 36.9567 15.2898 36.0937 15.2898H27.3176C26.4547 15.2898 25.7551 14.5903 25.7551 13.7273V8.98433C25.7551 8.12136 26.4547 7.42183 27.3176 7.42183Z" stroke="#EFF0F0" stroke-width="1.5" stroke-miterlimit="10" stroke-linecap="round" stroke-linejoin="round"/>
<path d="M43.9062 7.42183H52.6823C53.5453 7.42183 54.2448 8.12136 54.2448 8.98433V13.7273C54.2448 14.5903 53.5453 15.2898 52.6823 15.2898H43.9062C43.0433 15.2898 42.3438 14.5903 42.3438 13.7273V8.98433C42.3438 8.12136 43.0433 7.42183 43.9062 7.42183Z" stroke="#EFF0F0" stroke-width="1.5" stroke-miterlimit="10" stroke-linecap="round" stroke-linejoin="round"/>
<path d="M43.9062 19.9772H52.6823C53.5453 19.9772 54.2448 20.6768 54.2448 21.5397V26.2827C54.2448 27.1457 53.5453 27.8452 52.6823 27.8452H43.9062C43.0433 27.8452 42.3438 27.1457 42.3438 26.2827V21.5397C42.3438 20.6768 43.0433 19.9772 43.9062 19.9772Z" stroke="#EFF0F0" stroke-width="1.5" stroke-miterlimit="10" stroke-linecap="round" stroke-linejoin="round"/>
<path d="M43.9062 32.5329H52.6823C53.5453 32.5329 54.2448 33.2324 54.2448 34.0954V38.8384C54.2448 39.7013 53.5453 40.4009 52.6823 40.4009H43.9062C43.0433 40.4009 42.3438 39.7013 42.3438 38.8384V34.0954C42.3438 33.2324 43.0433 32.5329 43.9062 32.5329Z" stroke="#EFF0F0" stroke-width="1.5" stroke-miterlimit="10" stroke-linecap="round" stroke-linejoin="round"/>
<path d="M27.3176 19.9772H36.0937C36.9567 19.9772 37.6562 20.6768 37.6562 21.5397V26.2827C37.6562 27.1457 36.9567 27.8452 36.0937 27.8452H27.3176C26.4547 27.8452 25.7551 27.1457 25.7551 26.2827V21.5397C25.7551 20.6768 26.4547 19.9772 27.3176 19.9772Z" stroke="#EFF0F0" stroke-width="1.5" stroke-miterlimit="10" stroke-linecap="round" stroke-linejoin="round"/>
<path d="M27.3176 32.5329H36.0937C36.9567 32.5329 37.6562 33.2324 37.6562 34.0954V38.8384C37.6562 39.7013 36.9567 40.4009 36.0937 40.4009H27.3176C26.4547 40.4009 25.7551 39.7013 25.7551 38.8384V34.0954C25.7551 33.2324 26.4547 32.5329 27.3176 32.5329Z" stroke="#EFF0F0" stroke-width="1.5" stroke-miterlimit="10" stroke-linecap="round" stroke-linejoin="round"/>
<path d="M43.9062 45.0883H52.6823C53.5453 45.0883 54.2448 45.7879 54.2448 46.6508V51.3938C54.2448 52.2568 53.5453 52.9563 52.6823 52.9563H43.9062C43.0433 52.9563 42.3438 52.2568 42.3438 51.3938V46.6508C42.3438 45.7879 43.0433 45.0883 43.9062 45.0883Z" stroke="#EFF0F0" stroke-width="1.5" stroke-miterlimit="10" stroke-linecap="round" stroke-linejoin="round"/>
<path d="M27.3176 45.0883H36.0937C36.9567 45.0883 37.6562 45.7879 37.6562 46.6508V51.3938C37.6562 52.2568 36.9567 52.9563 36.0937 52.9563H27.3176C26.4547 52.9563 25.7551 52.2568 25.7551 51.3938V46.6508C25.7551 45.7879 26.4547 45.0883 27.3176 45.0883Z" stroke="#EFF0F0" stroke-width="1.5" stroke-miterlimit="10" stroke-linecap="round" stroke-linejoin="round"/>
<path d="M47.8125 78.8281V60.4306C47.8125 59.5677 47.113 58.8681 46.25 58.8681H33.75C32.887 58.8681 32.1875 59.5677 32.1875 60.4306V78.8281" stroke="#EFF0F0" stroke-width="1.5" stroke-miterlimit="10" stroke-linecap="round" stroke-linejoin="round"/>
<path d="M66.2957 60.9748H73.5092C74.3722 60.9748 75.0717 61.6743 75.0717 62.5373V67.2803C75.0717 68.1432 74.3722 68.8428 73.5092 68.8428H66.2957C65.4327 68.8428 64.7332 68.1432 64.7332 67.2803V62.5373C64.7332 61.6743 65.4327 60.9748 66.2957 60.9748Z" stroke="#EFF0F0" stroke-width="1.5" stroke-miterlimit="10" stroke-linecap="round" stroke-linejoin="round"/>
<path d="M66.2957 23.3085H73.5092C74.3722 23.3085 75.0717 24.0081 75.0717 24.871V29.614C75.0717 30.477 74.3722 31.1765 73.5092 31.1765H66.2957C65.4327 31.1765 64.7332 30.477 64.7332 29.614V24.871C64.7332 24.0081 65.4327 23.3085 66.2957 23.3085Z" stroke="#EFF0F0" stroke-width="1.5" stroke-miterlimit="10" stroke-linecap="round" stroke-linejoin="round"/>
<path d="M66.2957 35.864H73.5092C74.3722 35.864 75.0717 36.5635 75.0717 37.4265V42.1694C75.0717 43.0324 74.3722 43.7319 73.5092 43.7319H66.2957C65.4327 43.7319 64.7332 43.0324 64.7332 42.1694V37.4265C64.7332 36.5635 65.4327 35.864 66.2957 35.864Z" stroke="#EFF0F0" stroke-width="1.5" stroke-miterlimit="10" stroke-linecap="round" stroke-linejoin="round"/>
<path d="M66.2957 48.4194H73.5092C74.3722 48.4194 75.0717 49.1189 75.0717 49.9819V54.7249C75.0717 55.5878 74.3722 56.2874 73.5092 56.2874H66.2957C65.4327 56.2874 64.7332 55.5878 64.7332 54.7249V49.9819C64.7332 49.1189 65.4327 48.4194 66.2957 48.4194Z" stroke="#EFF0F0" stroke-width="1.5" stroke-miterlimit="10" stroke-linecap="round" stroke-linejoin="round"/>
<path d="M6.49097 35.864H13.7046C14.5675 35.864 15.2671 36.5635 15.2671 37.4265V42.1694C15.2671 43.0324 14.5675 43.7319 13.7046 43.7319H6.49097C5.628 43.7319 4.92847 43.0324 4.92847 42.1694V37.4265C4.92847 36.5635 5.628 35.864 6.49097 35.864Z" stroke="#EFF0F0" stroke-width="1.5" stroke-miterlimit="10" stroke-linecap="round" stroke-linejoin="round"/>
<path d="M6.49097 48.4194H13.7046C14.5675 48.4194 15.2671 49.1189 15.2671 49.9819V54.7249C15.2671 55.5878 14.5675 56.2874 13.7046 56.2874H6.49097C5.628 56.2874 4.92847 55.5878 4.92847 54.7249V49.9819C4.92847 49.1189 5.628 48.4194 6.49097 48.4194Z" stroke="#EFF0F0" stroke-width="1.5" stroke-miterlimit="10" stroke-linecap="round" stroke-linejoin="round"/>
<path d="M6.49097 60.9748H13.7046C14.5675 60.9748 15.2671 61.6743 15.2671 62.5373V67.2803C15.2671 68.1432 14.5675 68.8428 13.7046 68.8428H6.49097C5.628 68.8428 4.92847 68.1432 4.92847 67.2803V62.5373C4.92847 61.6743 5.628 60.9748 6.49097 60.9748Z" stroke="#EFF0F0" stroke-width="1.5" stroke-miterlimit="10" stroke-linecap="round" stroke-linejoin="round"/>
</g>
</g>
<defs>
<clipPath id="clip0_167_2257">
<rect width="80" height="80" fill="white"/>
</clipPath>
</defs>
</svg>
